<svg width="260" height="250" viewBox="0 0 260 250" fill="none" xmlns="http://www.w3.org/2000/svg">
<path d="M130.24 0.679977C140.053 0.679977 147.52 3.66664 152.64 9.63998C157.76 15.6133 160.32 23.2933 160.32 32.68C160.32 39.5066 159.04 48.2533 156.48 58.92C154.347 69.16 151.147 80.8933 146.88 94.12L137.92 124.84L162.88 106.28C179.093 93.9066 192.747 85.3733 203.84 80.68C214.933 75.56 223.893 73 230.72 73C237.973 73 244.587 75.7733 250.56 81.32C256.533 86.44 259.52 93.9067 259.52 103.72C259.52 116.947 252.053 125.693 237.12 129.96C222.613 133.8 201.493 136.36 173.76 137.64L142.4 138.92L167.36 156.2C187.413 169.427 201.493 181.16 209.6 191.4C217.707 201.64 221.76 211.667 221.76 221.48C221.76 228.307 218.987 234.707 213.44 240.68C207.893 246.653 201.067 249.64 192.96 249.64C180.587 249.64 170.773 243.24 163.52 230.44C156.267 217.64 148.587 199.933 140.48 177.32L130.24 148.52L119.36 177.32C111.253 202.493 103.147 220.84 95.04 232.36C87.36 243.453 77.9733 249 66.88 249C58.7733 249 51.9467 246.013 46.4 240.04C40.8533 234.067 38.08 227.667 38.08 220.84C38.08 210.6 42.7733 200.36 52.16 190.12C61.5467 179.453 75.2 168.147 93.12 156.2L117.44 138.92L86.72 137.64C57.28 136.36 35.52 133.587 21.44 129.32C7.78667 125.053 0.96 116.307 0.96 103.08C0.96 93.2667 3.94667 85.8 9.92 80.68C16.32 75.56 22.9333 73 29.76 73C46.4 73 69.0133 84.0933 97.6 106.28L122.56 124.84L113.6 94.12C109.333 80.4667 106.133 68.3067 104 57.64C101.867 46.5467 100.8 38.2267 100.8 32.68C100.8 23.2933 103.36 15.6133 108.48 9.63998C113.6 3.66664 120.853 0.679977 130.24 0.679977Z" fill="black"/>
</svg>
